<mxfile host="app.diagrams.net" modified="2020-11-12T08:34:54.264Z" agent="5.0 (Windows NT 10.0; Win64; x64) AppleWebKit/537.36 (KHTML, like Gecko) Chrome/86.0.4240.183 Safari/537.36 Edg/86.0.622.63" etag="oSUTEawHV7sA-nYz95Nn" version="13.9.6" type="github">
  <diagram id="Ca3qFjEWccOTUX_GJ6TU" name="Page-1">
    <mxGraphModel dx="2690" dy="336" grid="1" gridSize="23" guides="1" tooltips="1" connect="1" arrows="1" fold="1" page="0" pageScale="1" pageWidth="1169" pageHeight="827" math="0" shadow="0">
      <root>
        <mxCell id="0" />
        <mxCell id="1" parent="0" />
        <UserObject label="REQUEST" lucidchartObjectId="zR-M691XhZlv" id="NLhN2HDwFRjeJ_Ep3lSd-4">
          <mxCell style="html=1;overflow=block;whiteSpace=wrap;strokeColor=none;fillColor=none;whiteSpace=wrap;fontSize=13;fontColor=#333333;fontStyle=1;spacing=0;strokeOpacity=100;absoluteArcSize=1;arcSize=7;strokeWidth=2;rounded=1;" vertex="1" zOrder="0" parent="1">
            <mxGeometry x="487" y="374" width="144" height="36" as="geometry" />
          </mxCell>
        </UserObject>
        <UserObject label="&lt;font style=&quot;font-size: 12px&quot;&gt;MAIN COLLECTION&lt;/font&gt;" lucidchartObjectId="Q.YMlGvrfznx" id="NLhN2HDwFRjeJ_Ep3lSd-5">
          <mxCell style="html=1;overflow=block;whiteSpace=wrap;shape=mxgraph.aws4.resourceIcon;resIcon=mxgraph.aws4.documentdb_with_mongodb_compatibility;verticalLabelPosition=bottom;align=center;verticalAlign=top;strokeColor=#ffffff;whiteSpace=wrap;fontSize=15;fontColor=#000000;fontStyle=1;spacing=0;strokeOpacity=100;absoluteArcSize=1;arcSize=7;fillColor=#3b48cc;strokeWidth=2;rounded=1;" vertex="1" zOrder="1" parent="1">
            <mxGeometry x="-986" y="332" width="120" height="120" as="geometry" />
          </mxCell>
        </UserObject>
        <UserObject label="" lucidchartObjectId="tnZMXTh0txy4" id="NLhN2HDwFRjeJ_Ep3lSd-6">
          <mxCell style="html=1;jettySize=18;whiteSpace=wrap;fontSize=11;strokeColor=#5E5E5E;arcSize=12;edgeStyle=orthogonalEdgeStyle;startArrow=none;;endArrow=block;endFill=1;;exitX=1;exitY=0.5;exitPerimeter=0;entryX=-0.009;entryY=0.5;entryPerimeter=0;" edge="1" parent="1" source="NLhN2HDwFRjeJ_Ep3lSd-5" target="NLhN2HDwFRjeJ_Ep3lSd-7">
            <mxGeometry width="100" height="100" relative="1" as="geometry">
              <Array as="points" />
            </mxGeometry>
          </mxCell>
        </UserObject>
        <UserObject label="PERFORM&lt;br&gt;CRUD" lucidchartObjectId="upZMdfviS44m" id="NLhN2HDwFRjeJ_Ep3lSd-7">
          <mxCell style="html=1;overflow=block;whiteSpace=wrap;;whiteSpace=wrap;fontSize=13;fontColor=#000000;spacing=7;strokeColor=#5e5e5e;strokeOpacity=100;absoluteArcSize=1;arcSize=7;strokeWidth=2;rounded=1;" vertex="1" zOrder="3" parent="1">
            <mxGeometry x="-782" y="356" width="96" height="72" as="geometry" />
          </mxCell>
        </UserObject>
        <UserObject label="" lucidchartObjectId="_wZMxu1qryZq" id="NLhN2HDwFRjeJ_Ep3lSd-8">
          <mxCell style="html=1;overflow=block;whiteSpace=wrap;;whiteSpace=wrap;fontSize=11;spacing=3;strokeColor=#5e5e5e;strokeOpacity=100;fillOpacity=0;absoluteArcSize=1;arcSize=7;fillColor=#000000;strokeWidth=2;rounded=1;" vertex="1" zOrder="5" parent="1">
            <mxGeometry x="-530" y="310" width="361" height="360" as="geometry" />
          </mxCell>
        </UserObject>
        <mxCell id="NLhN2HDwFRjeJ_Ep3lSd-9" value="Passing the Data" style="shape=singleArrow;arrowWidth=0.5;arrowSize=0.18000000000000002;whiteSpace=wrap;fontSize=13;fontColor=#333333;spacing=3;strokeColor=#5e5e5e;strokeOpacity=100;absoluteArcSize=1;arcSize=7;strokeWidth=2;html=1;rounded=1;" vertex="1" zOrder="6" parent="1">
          <mxGeometry x="-650" y="466" width="120" height="48" as="geometry" />
        </mxCell>
        <UserObject label="CONVERT DATA FROM MAIN COLLECTION AS XML / JSON / JS" lucidchartObjectId="ABZM8dNAdG1I" id="NLhN2HDwFRjeJ_Ep3lSd-10">
          <mxCell style="html=1;overflow=block;whiteSpace=wrap;;whiteSpace=wrap;fontSize=13;fontColor=#333333;spacing=7;strokeColor=#5e5e5e;strokeOpacity=100;absoluteArcSize=1;arcSize=7;strokeWidth=2;rounded=1;" vertex="1" zOrder="7" parent="1">
            <mxGeometry x="-446" y="405" width="192" height="128" as="geometry" />
          </mxCell>
        </UserObject>
        <mxCell id="NLhN2HDwFRjeJ_Ep3lSd-11" style="edgeStyle=orthogonalEdgeStyle;orthogonalLoop=1;jettySize=auto;html=1;entryX=0.5;entryY=0;entryDx=0;entryDy=0;" edge="1" parent="1" source="NLhN2HDwFRjeJ_Ep3lSd-12" target="NLhN2HDwFRjeJ_Ep3lSd-64">
          <mxGeometry relative="1" as="geometry" />
        </mxCell>
        <UserObject label="&lt;font style=&quot;font-size: 12px&quot;&gt;API URL COLLECTION&lt;/font&gt;" lucidchartObjectId="zE9MGP5gBMmx" id="NLhN2HDwFRjeJ_Ep3lSd-12">
          <mxCell style="html=1;overflow=block;whiteSpace=wrap;shape=mxgraph.aws4.resourceIcon;resIcon=mxgraph.aws4.documentdb_with_mongodb_compatibility;verticalLabelPosition=bottom;align=center;verticalAlign=top;strokeColor=#ffffff;whiteSpace=wrap;fontSize=14;fontColor=#000000;fontStyle=1;spacing=0;strokeOpacity=100;absoluteArcSize=1;arcSize=7;fillColor=#3b48cc;strokeWidth=2;rounded=1;" vertex="1" zOrder="9" parent="1">
            <mxGeometry x="-986" y="502" width="120" height="120" as="geometry" />
          </mxCell>
        </UserObject>
        <UserObject label="" lucidchartObjectId="zE9Mcs0Aj6xZ" id="NLhN2HDwFRjeJ_Ep3lSd-13">
          <mxCell style="html=1;jettySize=18;whiteSpace=wrap;fontSize=11;strokeColor=#5E5E5E;arcSize=12;edgeStyle=orthogonalEdgeStyle;startArrow=none;;endArrow=block;endFill=1;;exitX=1;exitY=0.5;exitPerimeter=0;entryX=-0.009;entryY=0.5;entryPerimeter=0;" edge="1" parent="1" source="NLhN2HDwFRjeJ_Ep3lSd-12" target="NLhN2HDwFRjeJ_Ep3lSd-14">
            <mxGeometry width="100" height="100" relative="1" as="geometry">
              <Array as="points" />
            </mxGeometry>
          </mxCell>
        </UserObject>
        <UserObject label="CHECK FOR&#xa;APPLICATION&#xa;TYPE" lucidchartObjectId="zE9MkwPYH4aR" id="NLhN2HDwFRjeJ_Ep3lSd-14">
          <mxCell style="html=1;overflow=block;whiteSpace=wrap;;whiteSpace=wrap;fontSize=13;fontColor=#000000;spacing=7;strokeColor=#5e5e5e;strokeOpacity=100;absoluteArcSize=1;arcSize=7;strokeWidth=2;rounded=1;" vertex="1" zOrder="11" parent="1">
            <mxGeometry x="-782" y="526" width="96" height="72" as="geometry" />
          </mxCell>
        </UserObject>
        <UserObject label="" lucidchartObjectId="VT9MoA~vaHg0" id="NLhN2HDwFRjeJ_Ep3lSd-15">
          <mxCell style="html=1;overflow=block;whiteSpace=wrap;shape=image;whiteSpace=wrap;fontSize=11;spacing=0;strokeColor=none;strokeOpacity=100;strokeWidth=0;image=https://images.lucid.app/images/a920c7b7-cfdd-4c96-8914-b529c0d227d0/content;rounded=1;" vertex="1" zOrder="12" parent="1">
            <mxGeometry x="-369" y="356" width="38" height="38" as="geometry" />
          </mxCell>
        </UserObject>
        <UserObject label="" lucidchartObjectId="lX9MW.nm.JAK" id="NLhN2HDwFRjeJ_Ep3lSd-16">
          <mxCell style="html=1;overflow=block;whiteSpace=wrap;shape=image;whiteSpace=wrap;fontSize=11;spacing=0;strokeColor=none;strokeOpacity=100;strokeWidth=0;image=https://images.lucid.app/images/b2440e49-6483-4f7d-8471-f6258f256461/content;rounded=1;" vertex="1" zOrder="13" parent="1">
            <mxGeometry x="-494" y="451.5" width="35" height="35" as="geometry" />
          </mxCell>
        </UserObject>
        <mxCell id="NLhN2HDwFRjeJ_Ep3lSd-17" value="" style="strokeColor=none;fillColor=none;whiteSpace=wrap;fontSize=11;spacing=3;strokeOpacity=100;absoluteArcSize=1;arcSize=7;strokeWidth=2;html=1;rounded=1;" vertex="1" zOrder="14" parent="1">
          <mxGeometry x="-494" y="598" width="66" height="48" as="geometry" />
        </mxCell>
        <mxCell id="NLhN2HDwFRjeJ_Ep3lSd-18" value="" style="shape=curlyBracket;whiteSpace=wrap;fontSize=11;spacing=3;strokeColor=#5e5e5e;strokeOpacity=100;strokeWidth=2;rounded=1;" vertex="1" parent="NLhN2HDwFRjeJ_Ep3lSd-17">
          <mxGeometry x="60" width="6" height="48" as="geometry" />
        </mxCell>
        <mxCell id="NLhN2HDwFRjeJ_Ep3lSd-19" value="" style="strokeColor=none;fillColor=none;whiteSpace=wrap;fontSize=11;spacing=3;strokeOpacity=100;absoluteArcSize=1;arcSize=7;strokeWidth=2;rounded=1;" vertex="1" parent="NLhN2HDwFRjeJ_Ep3lSd-17">
          <mxGeometry width="60" height="48" as="geometry" />
        </mxCell>
        <UserObject label="We have to check the Application/Type of the API URL&#39;S. Then we have convert the data from DB to required Type" lucidchartObjectId="n29MuAYV6ltE" id="NLhN2HDwFRjeJ_Ep3lSd-20">
          <mxCell style="html=1;overflow=block;whiteSpace=wrap;;whiteSpace=wrap;fontSize=9;spacing=3;verticalAlign=top;strokeColor=none;fillOpacity=0;fillColor=#ffffff;strokeWidth=0;rounded=1;" vertex="1" zOrder="15" parent="1">
            <mxGeometry x="-428" y="598" width="183" height="74" as="geometry" />
          </mxCell>
        </UserObject>
        <mxCell id="NLhN2HDwFRjeJ_Ep3lSd-21" value="" style="strokeColor=none;fillColor=none;whiteSpace=wrap;fontSize=11;spacing=3;strokeOpacity=100;absoluteArcSize=1;arcSize=7;strokeWidth=2;html=1;rounded=1;" vertex="1" zOrder="16" parent="1">
          <mxGeometry x="-250" y="598" width="40" height="48" as="geometry" />
        </mxCell>
        <mxCell id="NLhN2HDwFRjeJ_Ep3lSd-22" value="" style="shape=curlyBracket;flipH=1;whiteSpace=wrap;fontSize=11;spacing=3;strokeColor=#5e5e5e;strokeOpacity=100;strokeWidth=2;rounded=1;" vertex="1" parent="NLhN2HDwFRjeJ_Ep3lSd-21">
          <mxGeometry width="6" height="48" as="geometry" />
        </mxCell>
        <mxCell id="NLhN2HDwFRjeJ_Ep3lSd-23" value="" style="strokeColor=none;fillColor=none;whiteSpace=wrap;fontSize=11;spacing=3;strokeOpacity=100;absoluteArcSize=1;arcSize=7;strokeWidth=2;rounded=1;" vertex="1" parent="NLhN2HDwFRjeJ_Ep3lSd-21">
          <mxGeometry x="6" width="34" height="48" as="geometry" />
        </mxCell>
        <UserObject label="" lucidchartObjectId="ka-MvZKsQXK-" id="NLhN2HDwFRjeJ_Ep3lSd-24">
          <mxCell style="html=1;jettySize=18;whiteSpace=wrap;fontSize=11;strokeColor=#5E5E5E;arcSize=12;edgeStyle=orthogonalEdgeStyle;startArrow=none;;endArrow=block;endFill=1;;exitX=1.009;exitY=0.5;exitPerimeter=0;entryX=-0.007;entryY=0.539;entryPerimeter=0;" edge="1" parent="1" source="NLhN2HDwFRjeJ_Ep3lSd-7" target="NLhN2HDwFRjeJ_Ep3lSd-9">
            <mxGeometry width="100" height="100" relative="1" as="geometry">
              <Array as="points" />
            </mxGeometry>
          </mxCell>
        </UserObject>
        <UserObject label="Segregate  Each Set of Data / Application-Type&#xa;in needed Format&#xa;&#xa;" lucidchartObjectId="gb-MUFerTY7E" id="NLhN2HDwFRjeJ_Ep3lSd-25">
          <mxCell style="html=1;overflow=block;whiteSpace=wrap;;whiteSpace=wrap;fontSize=14;fontColor=#000000;spacing=3;strokeColor=#5e5e5e;strokeOpacity=100;fillOpacity=0;absoluteArcSize=1;arcSize=7;fillColor=#000000;strokeWidth=2;rounded=1;" vertex="1" zOrder="18" parent="1">
            <mxGeometry x="-54" y="227" width="361" height="177" as="geometry" />
          </mxCell>
        </UserObject>
        <UserObject label="" lucidchartObjectId="fd-M.vrRO~.~" id="NLhN2HDwFRjeJ_Ep3lSd-26">
          <mxCell style="html=1;jettySize=18;whiteSpace=wrap;fontSize=11;strokeColor=#5E5E5E;arcSize=12;edgeStyle=orthogonalEdgeStyle;startArrow=none;;endArrow=block;endFill=1;;exitX=0.5;exitY=-0.007;exitPerimeter=0;entryX=0.5;entryY=0.95;entryPerimeter=0;" edge="1" parent="1" source="NLhN2HDwFRjeJ_Ep3lSd-10" target="NLhN2HDwFRjeJ_Ep3lSd-15">
            <mxGeometry width="100" height="100" relative="1" as="geometry">
              <Array as="points" />
            </mxGeometry>
          </mxCell>
        </UserObject>
        <UserObject label="" lucidchartObjectId="te-MWuV4mNrl" id="NLhN2HDwFRjeJ_Ep3lSd-27">
          <mxCell style="html=1;jettySize=18;whiteSpace=wrap;fontSize=11;strokeColor=#5E5E5E;arcSize=12;edgeStyle=orthogonalEdgeStyle;startArrow=none;;endArrow=block;endFill=1;;exitX=1.005;exitY=0.5;exitPerimeter=0;entryX=0.164;entryY=0.5;entryPerimeter=0;" edge="1" parent="1" source="NLhN2HDwFRjeJ_Ep3lSd-10">
            <mxGeometry width="100" height="100" relative="1" as="geometry">
              <Array as="points" />
              <mxPoint x="-240.4240000000009" y="469" as="targetPoint" />
            </mxGeometry>
          </mxCell>
        </UserObject>
        <UserObject label="" lucidchartObjectId="Se-M1yLhoTUI" id="NLhN2HDwFRjeJ_Ep3lSd-28">
          <mxCell style="html=1;jettySize=18;whiteSpace=wrap;fontSize=11;strokeColor=#5E5E5E;arcSize=12;edgeStyle=orthogonalEdgeStyle;startArrow=none;;endArrow=block;endFill=1;;exitX=-0.005;exitY=0.5;exitPerimeter=0;entryX=0.95;entryY=0.502;entryPerimeter=0;" edge="1" parent="1" source="NLhN2HDwFRjeJ_Ep3lSd-10" target="NLhN2HDwFRjeJ_Ep3lSd-16">
            <mxGeometry width="100" height="100" relative="1" as="geometry">
              <Array as="points" />
            </mxGeometry>
          </mxCell>
        </UserObject>
        <UserObject label="" lucidchartObjectId="5h-MJjJFaAWl" id="NLhN2HDwFRjeJ_Ep3lSd-29">
          <mxCell style="html=1;jettySize=18;whiteSpace=wrap;fontSize=11;strokeColor=#5E5E5E;arcSize=12;edgeStyle=orthogonalEdgeStyle;startArrow=none;;endArrow=block;endFill=1;;exitX=1.002;exitY=0.5;exitPerimeter=0;entryX=-0.002;entryY=0.5;entryPerimeter=0;" edge="1" parent="1" source="NLhN2HDwFRjeJ_Ep3lSd-8" target="NLhN2HDwFRjeJ_Ep3lSd-25">
            <mxGeometry width="100" height="100" relative="1" as="geometry">
              <Array as="points">
                <mxPoint x="-110" y="490" />
                <mxPoint x="-110" y="316" />
              </Array>
            </mxGeometry>
          </mxCell>
        </UserObject>
        <mxCell id="NLhN2HDwFRjeJ_Ep3lSd-30" value="FROM MAIN COLLECTION" style="group;spacingLeft=8;align=center;spacing=0;strokeColor=none;whiteSpace=wrap;fontSize=13;fontColor=#333333;strokeOpacity=100;fillOpacity=0;absoluteArcSize=1;arcSize=7;fillColor=#ffffff;strokeWidth=2;verticalAlign=middle;html=1;rounded=1;" vertex="1" zOrder="24" parent="1">
          <mxGeometry x="54" y="347" width="132" height="48" as="geometry" />
        </mxCell>
        <mxCell id="NLhN2HDwFRjeJ_Ep3lSd-31" value="" style="shape=partialRectangle;right=0;fillColor=none;whiteSpace=wrap;fontSize=13;fontColor=#333333;strokeColor=#5e5e5e;strokeWidth=2;rounded=1;" vertex="1" parent="NLhN2HDwFRjeJ_Ep3lSd-30">
          <mxGeometry width="8" height="48" relative="1" as="geometry" />
        </mxCell>
        <mxCell id="NLhN2HDwFRjeJ_Ep3lSd-32" value="" style="group;spacingLeft=8;align=left;spacing=0;strokeColor=none;whiteSpace=wrap;fontSize=11;strokeOpacity=100;fillOpacity=0;absoluteArcSize=1;arcSize=7;rotation=180;fillColor=#ffffff;strokeWidth=2;verticalAlign=middle;html=1;rounded=1;" vertex="1" zOrder="25" parent="1">
          <mxGeometry x="107" y="348" width="79" height="48" as="geometry" />
        </mxCell>
        <mxCell id="NLhN2HDwFRjeJ_Ep3lSd-33" value="" style="shape=partialRectangle;right=0;fillColor=none;whiteSpace=wrap;fontSize=11;strokeColor=#5e5e5e;rotation=180;strokeWidth=2;rounded=1;" vertex="1" parent="NLhN2HDwFRjeJ_Ep3lSd-32">
          <mxGeometry width="8" height="48" relative="1" as="geometry" />
        </mxCell>
        <UserObject label="" lucidchartObjectId="kn-M2MogpU4e" id="NLhN2HDwFRjeJ_Ep3lSd-34">
          <mxCell style="html=1;jettySize=18;whiteSpace=wrap;fontSize=11;strokeColor=#5E5E5E;arcSize=12;edgeStyle=orthogonalEdgeStyle;startArrow=none;;endArrow=block;endFill=1;;exitX=1.002;exitY=0.5;exitPerimeter=0;entryX=-0.002;entryY=0.5;entryPerimeter=0;" edge="1" parent="1" source="NLhN2HDwFRjeJ_Ep3lSd-8" target="NLhN2HDwFRjeJ_Ep3lSd-35">
            <mxGeometry width="100" height="100" relative="1" as="geometry">
              <Array as="points">
                <mxPoint x="-110" y="490" />
                <mxPoint x="-110" y="636" />
              </Array>
            </mxGeometry>
          </mxCell>
        </UserObject>
        <UserObject label="Segregate  Each Set of API URL&#39;S based on their ApplicationType&#xa;&#xa;" lucidchartObjectId="Yo-M0~90Rl_z" id="NLhN2HDwFRjeJ_Ep3lSd-35">
          <mxCell style="html=1;overflow=block;whiteSpace=wrap;;whiteSpace=wrap;fontSize=14;fontColor=#000000;spacing=3;strokeColor=#5e5e5e;strokeOpacity=100;fillOpacity=0;absoluteArcSize=1;arcSize=7;fillColor=#000000;strokeWidth=2;rounded=1;" vertex="1" zOrder="27" parent="1">
            <mxGeometry x="-49" y="547" width="361" height="177" as="geometry" />
          </mxCell>
        </UserObject>
        <UserObject label="" lucidchartObjectId="St-MKID.UcJk" id="NLhN2HDwFRjeJ_Ep3lSd-36">
          <mxCell style="html=1;jettySize=18;whiteSpace=wrap;fontSize=11;strokeColor=#5E5E5E;arcSize=12;edgeStyle=orthogonalEdgeStyle;startArrow=none;;endArrow=block;endFill=1;;exitX=0.5;exitY=1.013;exitPerimeter=0;entryX=0.5;entryY=1.005;entryPerimeter=0;" edge="1" parent="1" source="NLhN2HDwFRjeJ_Ep3lSd-14" target="NLhN2HDwFRjeJ_Ep3lSd-35">
            <mxGeometry width="100" height="100" relative="1" as="geometry">
              <Array as="points" />
            </mxGeometry>
          </mxCell>
        </UserObject>
        <mxCell id="NLhN2HDwFRjeJ_Ep3lSd-37" value="FROM API URL COLLECTION" style="group;spacingLeft=8;align=center;spacing=0;strokeColor=none;whiteSpace=wrap;fontSize=13;fontColor=#333333;verticalAlign=middle;strokeOpacity=100;fillOpacity=0;absoluteArcSize=1;arcSize=7;fillColor=#ffffff;strokeWidth=2;html=1;rounded=1;" vertex="1" zOrder="29" parent="1">
          <mxGeometry x="54" y="670" width="132" height="48" as="geometry" />
        </mxCell>
        <mxCell id="NLhN2HDwFRjeJ_Ep3lSd-38" value="" style="shape=partialRectangle;right=0;fillColor=none;whiteSpace=wrap;fontSize=13;fontColor=#333333;align=center;verticalAlign=middle;strokeColor=#5e5e5e;strokeWidth=2;rounded=1;" vertex="1" parent="NLhN2HDwFRjeJ_Ep3lSd-37">
          <mxGeometry width="8" height="48" relative="1" as="geometry" />
        </mxCell>
        <mxCell id="NLhN2HDwFRjeJ_Ep3lSd-39" value="" style="group;spacingLeft=8;align=left;spacing=0;strokeColor=none;whiteSpace=wrap;fontSize=11;strokeOpacity=100;fillOpacity=0;absoluteArcSize=1;arcSize=7;rotation=180;fillColor=#ffffff;strokeWidth=2;verticalAlign=middle;html=1;rounded=1;" vertex="1" zOrder="30" parent="1">
          <mxGeometry x="107" y="670" width="79" height="48" as="geometry" />
        </mxCell>
        <mxCell id="NLhN2HDwFRjeJ_Ep3lSd-40" value="" style="shape=partialRectangle;right=0;fillColor=none;whiteSpace=wrap;fontSize=11;strokeColor=#5e5e5e;rotation=180;strokeWidth=2;rounded=1;" vertex="1" parent="NLhN2HDwFRjeJ_Ep3lSd-39">
          <mxGeometry width="8" height="48" relative="1" as="geometry" />
        </mxCell>
        <UserObject label="MAP AND TRANSFER RESPECTIVE&#xa;DATA FORMAT WITH CORRESPONDING API URL&#39;S" lucidchartObjectId="Aw-MbT60HWWR" id="NLhN2HDwFRjeJ_Ep3lSd-41">
          <mxCell style="html=1;overflow=block;whiteSpace=wrap;;whiteSpace=wrap;fontSize=13;fontColor=#333333;spacing=7;strokeColor=#5e5e5e;strokeOpacity=100;absoluteArcSize=1;arcSize=7;strokeWidth=2;rounded=1;" vertex="1" zOrder="31" parent="1">
            <mxGeometry x="433" y="405" width="252" height="142" as="geometry" />
          </mxCell>
        </UserObject>
        <UserObject label="" lucidchartObjectId="Yw-MpNe.6cj0" id="NLhN2HDwFRjeJ_Ep3lSd-42">
          <mxCell style="html=1;jettySize=18;whiteSpace=wrap;fontSize=11;strokeColor=#5E5E5E;arcSize=12;edgeStyle=orthogonalEdgeStyle;startArrow=none;;endArrow=block;endFill=1;;exitX=1.002;exitY=0.5;exitPerimeter=0;entryX=-0.004;entryY=0.5;entryPerimeter=0;" edge="1" parent="1" source="NLhN2HDwFRjeJ_Ep3lSd-25" target="NLhN2HDwFRjeJ_Ep3lSd-41">
            <mxGeometry width="100" height="100" relative="1" as="geometry">
              <Array as="points" />
            </mxGeometry>
          </mxCell>
        </UserObject>
        <UserObject label="" lucidchartObjectId="4w-MnL9C1G.p" id="NLhN2HDwFRjeJ_Ep3lSd-43">
          <mxCell style="html=1;jettySize=18;whiteSpace=wrap;fontSize=11;strokeColor=#5E5E5E;arcSize=12;edgeStyle=orthogonalEdgeStyle;startArrow=none;;endArrow=block;endFill=1;;exitX=1.002;exitY=0.5;exitPerimeter=0;entryX=-0.004;entryY=0.5;entryPerimeter=0;" edge="1" parent="1" source="NLhN2HDwFRjeJ_Ep3lSd-35" target="NLhN2HDwFRjeJ_Ep3lSd-41">
            <mxGeometry width="100" height="100" relative="1" as="geometry">
              <Array as="points">
                <mxPoint x="370" y="635" />
                <mxPoint x="370" y="476" />
              </Array>
            </mxGeometry>
          </mxCell>
        </UserObject>
        <UserObject label="" lucidchartObjectId="VT-M5Ml1E-9u" id="NLhN2HDwFRjeJ_Ep3lSd-44">
          <mxCell style="html=1;jettySize=18;whiteSpace=wrap;fontSize=11;strokeColor=#5E5E5E;arcSize=12;edgeStyle=orthogonalEdgeStyle;startArrow=none;;endArrow=block;endFill=1;;exitX=1.004;exitY=0.5;exitPerimeter=0;entryX=-0.009;entryY=0.5;entryPerimeter=0;" edge="1" parent="1" source="NLhN2HDwFRjeJ_Ep3lSd-41" target="NLhN2HDwFRjeJ_Ep3lSd-45">
            <mxGeometry width="100" height="100" relative="1" as="geometry">
              <Array as="points" />
            </mxGeometry>
          </mxCell>
        </UserObject>
        <UserObject label="PERFORM THE ACTIONS OF THE API " lucidchartObjectId="3T-M8y_UdcLP" id="NLhN2HDwFRjeJ_Ep3lSd-45">
          <mxCell style="html=1;overflow=block;whiteSpace=wrap;;whiteSpace=wrap;fontSize=13;fontColor=#333333;spacing=7;strokeColor=#5E5E5E;absoluteArcSize=1;arcSize=7;strokeWidth=2;rounded=1;" vertex="1" zOrder="35" parent="1">
            <mxGeometry x="730" y="437" width="96" height="78" as="geometry" />
          </mxCell>
        </UserObject>
        <mxCell id="NLhN2HDwFRjeJ_Ep3lSd-46" value="" style="edgeStyle=orthogonalEdgeStyle;orthogonalLoop=1;jettySize=auto;html=1;" edge="1" parent="1" source="NLhN2HDwFRjeJ_Ep3lSd-47" target="NLhN2HDwFRjeJ_Ep3lSd-62">
          <mxGeometry relative="1" as="geometry" />
        </mxCell>
        <UserObject label="GET RESPONE FROM THE API&#xa;URL&#39;S." lucidchartObjectId="PU-Mf2I44WwS" id="NLhN2HDwFRjeJ_Ep3lSd-47">
          <mxCell style="html=1;overflow=block;whiteSpace=wrap;;whiteSpace=wrap;fontSize=13;fontColor=#333333;spacing=7;strokeColor=#5e5e5e;strokeOpacity=100;absoluteArcSize=1;arcSize=7;strokeWidth=2;rounded=1;" vertex="1" zOrder="36" parent="1">
            <mxGeometry x="871" y="405" width="252" height="142" as="geometry" />
          </mxCell>
        </UserObject>
        <UserObject label="" lucidchartObjectId="JV-M.SvBGPh0" id="NLhN2HDwFRjeJ_Ep3lSd-48">
          <mxCell style="html=1;jettySize=18;whiteSpace=wrap;fontSize=11;strokeColor=#5E5E5E;arcSize=12;edgeStyle=orthogonalEdgeStyle;startArrow=none;;endArrow=block;endFill=1;;" edge="1" parent="1">
            <mxGeometry width="100" height="100" relative="1" as="geometry">
              <Array as="points" />
              <mxPoint x="685.9999999999991" y="476" as="sourcePoint" />
              <mxPoint x="729" y="476" as="targetPoint" />
            </mxGeometry>
          </mxCell>
        </UserObject>
        <UserObject label="" lucidchartObjectId=".W-MXJprKFS." id="NLhN2HDwFRjeJ_Ep3lSd-49">
          <mxCell style="html=1;jettySize=18;whiteSpace=wrap;fontSize=11;strokeColor=#5E5E5E;arcSize=12;edgeStyle=orthogonalEdgeStyle;startArrow=none;;endArrow=block;endFill=1;;exitX=1.009;exitY=0.5;exitPerimeter=0;entryX=-0.004;entryY=0.5;entryPerimeter=0;" edge="1" parent="1" source="NLhN2HDwFRjeJ_Ep3lSd-45" target="NLhN2HDwFRjeJ_Ep3lSd-47">
            <mxGeometry width="100" height="100" relative="1" as="geometry">
              <Array as="points" />
            </mxGeometry>
          </mxCell>
        </UserObject>
        <UserObject label="RESPONSE" lucidchartObjectId="-Y-M5e90RVFS" id="NLhN2HDwFRjeJ_Ep3lSd-50">
          <mxCell style="html=1;overflow=block;whiteSpace=wrap;strokeColor=none;fillColor=none;whiteSpace=wrap;fontSize=13;fontColor=#333333;fontStyle=1;spacing=0;strokeOpacity=100;absoluteArcSize=1;arcSize=7;strokeWidth=2;rounded=1;" vertex="1" zOrder="40" parent="1">
            <mxGeometry x="925" y="374" width="144" height="36" as="geometry" />
          </mxCell>
        </UserObject>
        <UserObject label="1. CHECK RESPONSE (STATUS) CODE FROM API RETURN&lt;br&gt;2. CHECK RESPONSE TIME&lt;br&gt;3. LATENCY&lt;br&gt;" lucidchartObjectId=".y_MP-dcg7dd" id="NLhN2HDwFRjeJ_Ep3lSd-51">
          <mxCell style="html=1;overflow=block;whiteSpace=wrap;;whiteSpace=wrap;fontSize=13;fontColor=#333333;spacing=3;strokeColor=#5e5e5e;strokeOpacity=100;fillOpacity=0;absoluteArcSize=1;arcSize=7;fillColor=#000000;strokeWidth=2;rounded=1;" vertex="1" zOrder="41" parent="1">
            <mxGeometry x="1174" y="310" width="361" height="360" as="geometry" />
          </mxCell>
        </UserObject>
        <UserObject label="" lucidchartObjectId=".z_My.yaata0" id="NLhN2HDwFRjeJ_Ep3lSd-52">
          <mxCell style="html=1;jettySize=18;whiteSpace=wrap;fontSize=11;strokeColor=#5E5E5E;arcSize=12;edgeStyle=orthogonalEdgeStyle;startArrow=none;;endArrow=block;endFill=1;;exitX=1.004;exitY=0.5;exitPerimeter=0;entryX=-0.002;entryY=0.461;entryPerimeter=0;" edge="1" parent="1" source="NLhN2HDwFRjeJ_Ep3lSd-47" target="NLhN2HDwFRjeJ_Ep3lSd-51">
            <mxGeometry width="100" height="100" relative="1" as="geometry">
              <Array as="points" />
            </mxGeometry>
          </mxCell>
        </UserObject>
        <UserObject label="CHECKLIST / TEST" lucidchartObjectId="xD_MZKoS26Ln" id="NLhN2HDwFRjeJ_Ep3lSd-53">
          <mxCell style="html=1;overflow=block;whiteSpace=wrap;strokeColor=none;fillColor=none;whiteSpace=wrap;fontSize=14;fontColor=#333333;fontStyle=1;spacing=0;strokeOpacity=100;absoluteArcSize=1;arcSize=7;strokeWidth=2;rounded=1;" vertex="1" zOrder="43" parent="1">
            <mxGeometry x="1283" y="332" width="144" height="36" as="geometry" />
          </mxCell>
        </UserObject>
        <UserObject label="MAIN COLELCTION" lucidchartObjectId=".9_MZ~g2BQ8r" id="NLhN2HDwFRjeJ_Ep3lSd-54">
          <mxCell style="html=1;overflow=block;whiteSpace=wrap;shape=mxgraph.aws4.resourceIcon;resIcon=mxgraph.aws4.documentdb_with_mongodb_compatibility;verticalLabelPosition=bottom;align=center;verticalAlign=top;strokeColor=#ffffff;whiteSpace=wrap;fontSize=5;fontColor=#000000;fontStyle=1;spacing=0;strokeOpacity=100;absoluteArcSize=1;arcSize=7;fillColor=#3b48cc;strokeWidth=2;rounded=1;" vertex="1" zOrder="44" parent="1">
            <mxGeometry x="262" y="347" width="36" height="36" as="geometry" />
          </mxCell>
        </UserObject>
        <UserObject label="API COLLECTION" lucidchartObjectId="Y-_MG_eussvM" id="NLhN2HDwFRjeJ_Ep3lSd-55">
          <mxCell style="html=1;overflow=block;whiteSpace=wrap;shape=mxgraph.aws4.resourceIcon;resIcon=mxgraph.aws4.documentdb_with_mongodb_compatibility;verticalLabelPosition=bottom;align=center;verticalAlign=top;strokeColor=#ffffff;whiteSpace=wrap;fontSize=5;fontColor=#000000;fontStyle=1;spacing=0;strokeOpacity=100;absoluteArcSize=1;arcSize=7;fillColor=#3b48cc;strokeWidth=2;rounded=1;" vertex="1" zOrder="45" parent="1">
            <mxGeometry x="271" y="670" width="36" height="36" as="geometry" />
          </mxCell>
        </UserObject>
        <UserObject label="" lucidchartObjectId="o~_M.q~rCnKZ" id="NLhN2HDwFRjeJ_Ep3lSd-56">
          <mxCell style="html=1;overflow=block;whiteSpace=wrap;shape=image;whiteSpace=wrap;fontSize=11;spacing=3;strokeColor=none;strokeOpacity=100;strokeWidth=0;rounded=1;" vertex="1" zOrder="46" parent="1">
            <mxGeometry x="1082" y="514" width="32" height="32" as="geometry" />
          </mxCell>
        </UserObject>
        <UserObject label="" lucidchartObjectId="v~_Ma4q5iS8m" id="NLhN2HDwFRjeJ_Ep3lSd-57">
          <mxCell style="html=1;overflow=block;whiteSpace=wrap;shape=image;whiteSpace=wrap;fontSize=11;spacing=3;strokeColor=none;strokeOpacity=100;strokeWidth=0;rounded=1;" vertex="1" zOrder="47" parent="1">
            <mxGeometry x="655" y="515" width="22" height="29" as="geometry" />
          </mxCell>
        </UserObject>
        <UserObject label="" lucidchartObjectId="xd.Mx0mA.RFu" id="NLhN2HDwFRjeJ_Ep3lSd-58">
          <mxCell style="html=1;overflow=block;whiteSpace=wrap;shape=image;whiteSpace=wrap;fontSize=11;spacing=3;strokeColor=none;strokeOpacity=100;strokeWidth=0;rounded=1;" vertex="1" zOrder="48" parent="1">
            <mxGeometry x="1486" y="320" width="36" height="36" as="geometry" />
          </mxCell>
        </UserObject>
        <mxCell id="NLhN2HDwFRjeJ_Ep3lSd-59" value="" style="shape=image;html=1;verticalAlign=top;verticalLabelPosition=bottom;labelBackgroundColor=#ffffff;imageAspect=0;aspect=fixed;image=https://cdn3.iconfinder.com/data/icons/document-file-formats-2/512/22-128.png;rounded=1;" vertex="1" parent="1">
          <mxGeometry x="-245" y="446.5" width="40" height="40" as="geometry" />
        </mxCell>
        <mxCell id="NLhN2HDwFRjeJ_Ep3lSd-60" value="&lt;font style=&quot;font-size: 14px&quot;&gt;&lt;b&gt;DATABASE&lt;/b&gt;&lt;/font&gt;" style="dashed=0;outlineConnect=0;html=1;align=center;labelPosition=center;verticalLabelPosition=bottom;verticalAlign=top;shape=mxgraph.webicons.mongodb;gradientColor=#DFDEDE;rounded=1;" vertex="1" parent="1">
          <mxGeometry x="-1340" y="417" width="185" height="146" as="geometry" />
        </mxCell>
        <mxCell id="NLhN2HDwFRjeJ_Ep3lSd-61" value="" style="html=1;shadow=0;dashed=0;align=center;verticalAlign=middle;shape=mxgraph.arrows2.twoWayArrow;dy=0.6;dx=35;rounded=1;" vertex="1" parent="1">
          <mxGeometry x="-1150" y="473" width="130" height="60" as="geometry" />
        </mxCell>
        <mxCell id="NLhN2HDwFRjeJ_Ep3lSd-62" value="UPDATE LOG" style="whiteSpace=wrap;html=1;fontSize=13;fontColor=#333333;strokeColor=#5e5e5e;strokeWidth=2;spacing=7;arcSize=7;rounded=1;" vertex="1" parent="1">
          <mxGeometry x="937" y="585" width="120" height="60" as="geometry" />
        </mxCell>
        <mxCell id="NLhN2HDwFRjeJ_Ep3lSd-63" value="" style="outlineConnect=0;fontColor=#232F3E;gradientColor=none;fillColor=#277116;strokeColor=none;dashed=0;verticalLabelPosition=bottom;verticalAlign=top;align=center;html=1;fontSize=12;fontStyle=0;aspect=fixed;pointerEvents=1;shape=mxgraph.aws4.iot_over_the_air_update;rounded=1;" vertex="1" parent="1">
          <mxGeometry x="1030" y="624" width="22" height="22" as="geometry" />
        </mxCell>
        <mxCell id="NLhN2HDwFRjeJ_Ep3lSd-64" value="&lt;font style=&quot;font-size: 12px&quot;&gt;API_URL&lt;br&gt;TIMEOUT_SEC&lt;br&gt;CONTENT_TYPE&lt;br&gt;SAMPLE_DATA&lt;br&gt;CHECKLIST FUNC. NAME&lt;/font&gt;" style="shape=parallelogram;html=1;strokeWidth=2;perimeter=parallelogramPerimeter;whiteSpace=wrap;arcSize=12;size=0.23;rounded=1;" vertex="1" parent="1">
          <mxGeometry x="-1051" y="718" width="250" height="130" as="geometry" />
        </mxCell>
        <UserObject label="" lucidchartObjectId="xuZM8lFK8NhB" id="NLhN2HDwFRjeJ_Ep3lSd-65">
          <mxCell style="html=1;overflow=block;whiteSpace=wrap;;whiteSpace=wrap;fontSize=11;spacing=3;strokeColor=#5e5e5e;strokeOpacity=100;fillOpacity=0;absoluteArcSize=1;arcSize=7;fillColor=#000000;strokeWidth=2;rounded=1;" vertex="1" zOrder="4" parent="1">
            <mxGeometry x="-1011" y="312" width="361" height="360" as="geometry" />
          </mxCell>
        </UserObject>
        <mxCell id="NLhN2HDwFRjeJ_Ep3lSd-66" value="" style="edgeStyle=orthogonalEdgeStyle;orthogonalLoop=1;jettySize=auto;html=1;" edge="1" parent="1" target="NLhN2HDwFRjeJ_Ep3lSd-67">
          <mxGeometry relative="1" as="geometry">
            <mxPoint x="559" y="548" as="sourcePoint" />
          </mxGeometry>
        </mxCell>
        <mxCell id="NLhN2HDwFRjeJ_Ep3lSd-67" value="CREATE LOG" style="whiteSpace=wrap;html=1;fontSize=13;fontColor=#333333;strokeColor=#5e5e5e;strokeWidth=2;spacing=7;arcSize=7;rounded=1;" vertex="1" parent="1">
          <mxGeometry x="499" y="586" width="120" height="60" as="geometry" />
        </mxCell>
        <UserObject label="REQUEST" lucidchartObjectId="zR-M691XhZlv" id="NLhN2HDwFRjeJ_Ep3lSd-68">
          <mxCell style="html=1;overflow=block;whiteSpace=wrap;strokeColor=none;fillColor=none;whiteSpace=wrap;fontSize=13;fontColor=#333333;fontStyle=1;spacing=0;strokeOpacity=100;absoluteArcSize=1;arcSize=7;strokeWidth=2;rounded=1;" vertex="1" zOrder="0" parent="1">
            <mxGeometry x="487" y="1297" width="144" height="36" as="geometry" />
          </mxCell>
        </UserObject>
        <UserObject label="&lt;font style=&quot;font-size: 12px&quot;&gt;HEALTH LOGS&lt;/font&gt;" lucidchartObjectId="Q.YMlGvrfznx" id="NLhN2HDwFRjeJ_Ep3lSd-69">
          <mxCell style="html=1;overflow=block;whiteSpace=wrap;shape=mxgraph.aws4.resourceIcon;resIcon=mxgraph.aws4.documentdb_with_mongodb_compatibility;verticalLabelPosition=bottom;align=center;verticalAlign=top;strokeColor=#ffffff;whiteSpace=wrap;fontSize=15;fontColor=#000000;fontStyle=1;spacing=0;strokeOpacity=100;absoluteArcSize=1;arcSize=7;fillColor=#3b48cc;strokeWidth=2;rounded=1;" vertex="1" zOrder="1" parent="1">
            <mxGeometry x="-986" y="1255" width="120" height="120" as="geometry" />
          </mxCell>
        </UserObject>
        <UserObject label="PERFORM&lt;br&gt;CRUD" lucidchartObjectId="upZMdfviS44m" id="NLhN2HDwFRjeJ_Ep3lSd-71">
          <mxCell style="html=1;overflow=block;whiteSpace=wrap;;whiteSpace=wrap;fontSize=13;fontColor=#000000;spacing=7;strokeColor=#5e5e5e;strokeOpacity=100;absoluteArcSize=1;arcSize=7;strokeWidth=2;rounded=1;" vertex="1" zOrder="3" parent="1">
            <mxGeometry x="-782" y="1279" width="96" height="72" as="geometry" />
          </mxCell>
        </UserObject>
        <UserObject label="" lucidchartObjectId="_wZMxu1qryZq" id="NLhN2HDwFRjeJ_Ep3lSd-72">
          <mxCell style="html=1;overflow=block;whiteSpace=wrap;;whiteSpace=wrap;fontSize=11;spacing=3;strokeColor=#5e5e5e;strokeOpacity=100;fillOpacity=0;absoluteArcSize=1;arcSize=7;fillColor=#000000;strokeWidth=2;rounded=1;" vertex="1" zOrder="5" parent="1">
            <mxGeometry x="-530" y="1233" width="361" height="360" as="geometry" />
          </mxCell>
        </UserObject>
        <mxCell id="NLhN2HDwFRjeJ_Ep3lSd-73" value="Passing the Data" style="shape=singleArrow;arrowWidth=0.5;arrowSize=0.18000000000000002;whiteSpace=wrap;fontSize=13;fontColor=#333333;spacing=3;strokeColor=#5e5e5e;strokeOpacity=100;absoluteArcSize=1;arcSize=7;strokeWidth=2;html=1;rounded=1;" vertex="1" zOrder="6" parent="1">
          <mxGeometry x="-650" y="1389" width="120" height="48" as="geometry" />
        </mxCell>
        <UserObject label="CONVERT DATA FROM API COLLECTION AS XML / JSON / JS" lucidchartObjectId="ABZM8dNAdG1I" id="NLhN2HDwFRjeJ_Ep3lSd-74">
          <mxCell style="html=1;overflow=block;whiteSpace=wrap;;whiteSpace=wrap;fontSize=13;fontColor=#333333;spacing=7;strokeColor=#5e5e5e;strokeOpacity=100;absoluteArcSize=1;arcSize=7;strokeWidth=2;rounded=1;" vertex="1" zOrder="7" parent="1">
            <mxGeometry x="-446" y="1328" width="192" height="128" as="geometry" />
          </mxCell>
        </UserObject>
        <mxCell id="NLhN2HDwFRjeJ_Ep3lSd-75" style="edgeStyle=orthogonalEdgeStyle;orthogonalLoop=1;jettySize=auto;html=1;entryX=0.5;entryY=0;entryDx=0;entryDy=0;" edge="1" source="NLhN2HDwFRjeJ_Ep3lSd-76" target="NLhN2HDwFRjeJ_Ep3lSd-128" parent="1">
          <mxGeometry relative="1" as="geometry" />
        </mxCell>
        <mxCell id="NLhN2HDwFRjeJ_Ep3lSd-135" value="" style="edgeStyle=orthogonalEdgeStyle;rounded=0;orthogonalLoop=1;jettySize=auto;html=1;" edge="1" parent="1" source="NLhN2HDwFRjeJ_Ep3lSd-76" target="NLhN2HDwFRjeJ_Ep3lSd-128">
          <mxGeometry relative="1" as="geometry" />
        </mxCell>
        <UserObject label="&lt;span style=&quot;font-size: 12px&quot;&gt;API INFORMATION&lt;/span&gt;" lucidchartObjectId="zE9MGP5gBMmx" id="NLhN2HDwFRjeJ_Ep3lSd-76">
          <mxCell style="html=1;overflow=block;whiteSpace=wrap;shape=mxgraph.aws4.resourceIcon;resIcon=mxgraph.aws4.documentdb_with_mongodb_compatibility;verticalLabelPosition=bottom;align=center;verticalAlign=top;strokeColor=#ffffff;whiteSpace=wrap;fontSize=14;fontColor=#000000;fontStyle=1;spacing=0;strokeOpacity=100;absoluteArcSize=1;arcSize=7;fillColor=#3b48cc;strokeWidth=2;rounded=1;" vertex="1" zOrder="9" parent="1">
            <mxGeometry x="-986" y="1425" width="120" height="120" as="geometry" />
          </mxCell>
        </UserObject>
        <UserObject label="" lucidchartObjectId="zE9Mcs0Aj6xZ" id="NLhN2HDwFRjeJ_Ep3lSd-77">
          <mxCell style="html=1;jettySize=18;whiteSpace=wrap;fontSize=11;strokeColor=#5E5E5E;arcSize=12;edgeStyle=orthogonalEdgeStyle;startArrow=none;;endArrow=block;endFill=1;;exitX=1;exitY=0.5;exitPerimeter=0;entryX=-0.009;entryY=0.5;entryPerimeter=0;" edge="1" source="NLhN2HDwFRjeJ_Ep3lSd-76" target="NLhN2HDwFRjeJ_Ep3lSd-78" parent="1">
            <mxGeometry width="100" height="100" relative="1" as="geometry">
              <Array as="points" />
            </mxGeometry>
          </mxCell>
        </UserObject>
        <mxCell id="NLhN2HDwFRjeJ_Ep3lSd-136" style="edgeStyle=orthogonalEdgeStyle;rounded=0;orthogonalLoop=1;jettySize=auto;html=1;entryX=0.5;entryY=1;entryDx=0;entryDy=0;" edge="1" parent="1" source="NLhN2HDwFRjeJ_Ep3lSd-78" target="NLhN2HDwFRjeJ_Ep3lSd-71">
          <mxGeometry relative="1" as="geometry" />
        </mxCell>
        <UserObject label="CHECK FOR&#xa;APPLICATION&#xa;TYPE" lucidchartObjectId="zE9MkwPYH4aR" id="NLhN2HDwFRjeJ_Ep3lSd-78">
          <mxCell style="html=1;overflow=block;whiteSpace=wrap;;whiteSpace=wrap;fontSize=13;fontColor=#000000;spacing=7;strokeColor=#5e5e5e;strokeOpacity=100;absoluteArcSize=1;arcSize=7;strokeWidth=2;rounded=1;" vertex="1" zOrder="11" parent="1">
            <mxGeometry x="-782" y="1449" width="96" height="72" as="geometry" />
          </mxCell>
        </UserObject>
        <UserObject label="" lucidchartObjectId="VT9MoA~vaHg0" id="NLhN2HDwFRjeJ_Ep3lSd-79">
          <mxCell style="html=1;overflow=block;whiteSpace=wrap;shape=image;whiteSpace=wrap;fontSize=11;spacing=0;strokeColor=none;strokeOpacity=100;strokeWidth=0;image=https://images.lucid.app/images/a920c7b7-cfdd-4c96-8914-b529c0d227d0/content;rounded=1;" vertex="1" zOrder="12" parent="1">
            <mxGeometry x="-369" y="1279" width="38" height="38" as="geometry" />
          </mxCell>
        </UserObject>
        <UserObject label="" lucidchartObjectId="lX9MW.nm.JAK" id="NLhN2HDwFRjeJ_Ep3lSd-80">
          <mxCell style="html=1;overflow=block;whiteSpace=wrap;shape=image;whiteSpace=wrap;fontSize=11;spacing=0;strokeColor=none;strokeOpacity=100;strokeWidth=0;image=https://images.lucid.app/images/b2440e49-6483-4f7d-8471-f6258f256461/content;rounded=1;" vertex="1" zOrder="13" parent="1">
            <mxGeometry x="-494" y="1374.5" width="35" height="35" as="geometry" />
          </mxCell>
        </UserObject>
        <mxCell id="NLhN2HDwFRjeJ_Ep3lSd-81" value="" style="strokeColor=none;fillColor=none;whiteSpace=wrap;fontSize=11;spacing=3;strokeOpacity=100;absoluteArcSize=1;arcSize=7;strokeWidth=2;html=1;rounded=1;" vertex="1" zOrder="14" parent="1">
          <mxGeometry x="-494" y="1521" width="66" height="48" as="geometry" />
        </mxCell>
        <mxCell id="NLhN2HDwFRjeJ_Ep3lSd-82" value="" style="shape=curlyBracket;whiteSpace=wrap;fontSize=11;spacing=3;strokeColor=#5e5e5e;strokeOpacity=100;strokeWidth=2;rounded=1;" vertex="1" parent="NLhN2HDwFRjeJ_Ep3lSd-81">
          <mxGeometry x="60" width="6" height="48" as="geometry" />
        </mxCell>
        <mxCell id="NLhN2HDwFRjeJ_Ep3lSd-83" value="" style="strokeColor=none;fillColor=none;whiteSpace=wrap;fontSize=11;spacing=3;strokeOpacity=100;absoluteArcSize=1;arcSize=7;strokeWidth=2;rounded=1;" vertex="1" parent="NLhN2HDwFRjeJ_Ep3lSd-81">
          <mxGeometry width="60" height="48" as="geometry" />
        </mxCell>
        <UserObject label="We have to check the Application/Type of the API URL&#39;S. Then we have convert the data from DB to required Type" lucidchartObjectId="n29MuAYV6ltE" id="NLhN2HDwFRjeJ_Ep3lSd-84">
          <mxCell style="html=1;overflow=block;whiteSpace=wrap;;whiteSpace=wrap;fontSize=9;spacing=3;verticalAlign=top;strokeColor=none;fillOpacity=0;fillColor=#ffffff;strokeWidth=0;rounded=1;" vertex="1" zOrder="15" parent="1">
            <mxGeometry x="-428" y="1521" width="183" height="74" as="geometry" />
          </mxCell>
        </UserObject>
        <mxCell id="NLhN2HDwFRjeJ_Ep3lSd-85" value="" style="strokeColor=none;fillColor=none;whiteSpace=wrap;fontSize=11;spacing=3;strokeOpacity=100;absoluteArcSize=1;arcSize=7;strokeWidth=2;html=1;rounded=1;" vertex="1" zOrder="16" parent="1">
          <mxGeometry x="-250" y="1521" width="40" height="48" as="geometry" />
        </mxCell>
        <mxCell id="NLhN2HDwFRjeJ_Ep3lSd-86" value="" style="shape=curlyBracket;flipH=1;whiteSpace=wrap;fontSize=11;spacing=3;strokeColor=#5e5e5e;strokeOpacity=100;strokeWidth=2;rounded=1;" vertex="1" parent="NLhN2HDwFRjeJ_Ep3lSd-85">
          <mxGeometry width="6" height="48" as="geometry" />
        </mxCell>
        <mxCell id="NLhN2HDwFRjeJ_Ep3lSd-87" value="" style="strokeColor=none;fillColor=none;whiteSpace=wrap;fontSize=11;spacing=3;strokeOpacity=100;absoluteArcSize=1;arcSize=7;strokeWidth=2;rounded=1;" vertex="1" parent="NLhN2HDwFRjeJ_Ep3lSd-85">
          <mxGeometry x="6" width="34" height="48" as="geometry" />
        </mxCell>
        <UserObject label="" lucidchartObjectId="ka-MvZKsQXK-" id="NLhN2HDwFRjeJ_Ep3lSd-88">
          <mxCell style="html=1;jettySize=18;whiteSpace=wrap;fontSize=11;strokeColor=#5E5E5E;arcSize=12;edgeStyle=orthogonalEdgeStyle;startArrow=none;;endArrow=block;endFill=1;;exitX=1.009;exitY=0.5;exitPerimeter=0;entryX=-0.007;entryY=0.539;entryPerimeter=0;" edge="1" source="NLhN2HDwFRjeJ_Ep3lSd-71" target="NLhN2HDwFRjeJ_Ep3lSd-73" parent="1">
            <mxGeometry width="100" height="100" relative="1" as="geometry">
              <Array as="points" />
            </mxGeometry>
          </mxCell>
        </UserObject>
        <UserObject label="Segregate  Each Set of Data / Application-Type&#xa;in needed Format&#xa;&#xa;" lucidchartObjectId="gb-MUFerTY7E" id="NLhN2HDwFRjeJ_Ep3lSd-89">
          <mxCell style="html=1;overflow=block;whiteSpace=wrap;;whiteSpace=wrap;fontSize=14;fontColor=#000000;spacing=3;strokeColor=#5e5e5e;strokeOpacity=100;fillOpacity=0;absoluteArcSize=1;arcSize=7;fillColor=#000000;strokeWidth=2;rounded=1;" vertex="1" zOrder="18" parent="1">
            <mxGeometry x="-54" y="1324.5" width="361" height="177" as="geometry" />
          </mxCell>
        </UserObject>
        <UserObject label="" lucidchartObjectId="fd-M.vrRO~.~" id="NLhN2HDwFRjeJ_Ep3lSd-90">
          <mxCell style="html=1;jettySize=18;whiteSpace=wrap;fontSize=11;strokeColor=#5E5E5E;arcSize=12;edgeStyle=orthogonalEdgeStyle;startArrow=none;;endArrow=block;endFill=1;;exitX=0.5;exitY=-0.007;exitPerimeter=0;entryX=0.5;entryY=0.95;entryPerimeter=0;" edge="1" source="NLhN2HDwFRjeJ_Ep3lSd-74" target="NLhN2HDwFRjeJ_Ep3lSd-79" parent="1">
            <mxGeometry width="100" height="100" relative="1" as="geometry">
              <Array as="points" />
            </mxGeometry>
          </mxCell>
        </UserObject>
        <UserObject label="" lucidchartObjectId="te-MWuV4mNrl" id="NLhN2HDwFRjeJ_Ep3lSd-91">
          <mxCell style="html=1;jettySize=18;whiteSpace=wrap;fontSize=11;strokeColor=#5E5E5E;arcSize=12;edgeStyle=orthogonalEdgeStyle;startArrow=none;;endArrow=block;endFill=1;;exitX=1.005;exitY=0.5;exitPerimeter=0;entryX=0.164;entryY=0.5;entryPerimeter=0;" edge="1" source="NLhN2HDwFRjeJ_Ep3lSd-74" parent="1">
            <mxGeometry width="100" height="100" relative="1" as="geometry">
              <Array as="points" />
              <mxPoint x="-240.4240000000009" y="1392" as="targetPoint" />
            </mxGeometry>
          </mxCell>
        </UserObject>
        <UserObject label="" lucidchartObjectId="Se-M1yLhoTUI" id="NLhN2HDwFRjeJ_Ep3lSd-92">
          <mxCell style="html=1;jettySize=18;whiteSpace=wrap;fontSize=11;strokeColor=#5E5E5E;arcSize=12;edgeStyle=orthogonalEdgeStyle;startArrow=none;;endArrow=block;endFill=1;;exitX=-0.005;exitY=0.5;exitPerimeter=0;entryX=0.95;entryY=0.502;entryPerimeter=0;" edge="1" source="NLhN2HDwFRjeJ_Ep3lSd-74" target="NLhN2HDwFRjeJ_Ep3lSd-80" parent="1">
            <mxGeometry width="100" height="100" relative="1" as="geometry">
              <Array as="points" />
            </mxGeometry>
          </mxCell>
        </UserObject>
        <UserObject label="" lucidchartObjectId="5h-MJjJFaAWl" id="NLhN2HDwFRjeJ_Ep3lSd-93">
          <mxCell style="html=1;jettySize=18;whiteSpace=wrap;fontSize=11;strokeColor=#5E5E5E;arcSize=12;edgeStyle=orthogonalEdgeStyle;startArrow=none;;endArrow=block;endFill=1;;exitX=1.002;exitY=0.5;exitPerimeter=0;entryX=-0.002;entryY=0.5;entryPerimeter=0;" edge="1" source="NLhN2HDwFRjeJ_Ep3lSd-72" target="NLhN2HDwFRjeJ_Ep3lSd-89" parent="1">
            <mxGeometry width="100" height="100" relative="1" as="geometry">
              <Array as="points">
                <mxPoint x="-92" y="1413" />
                <mxPoint x="-92" y="1413" />
              </Array>
            </mxGeometry>
          </mxCell>
        </UserObject>
        <mxCell id="NLhN2HDwFRjeJ_Ep3lSd-94" value="FROM API INFORMATION COLLECTION" style="group;spacingLeft=8;align=center;spacing=0;strokeColor=none;whiteSpace=wrap;fontSize=13;fontColor=#333333;strokeOpacity=100;fillOpacity=0;absoluteArcSize=1;arcSize=7;fillColor=#ffffff;strokeWidth=2;verticalAlign=middle;html=1;rounded=1;" vertex="1" zOrder="24" parent="1">
          <mxGeometry x="60.5" y="1449" width="132" height="48" as="geometry" />
        </mxCell>
        <mxCell id="NLhN2HDwFRjeJ_Ep3lSd-95" value="" style="shape=partialRectangle;right=0;fillColor=none;whiteSpace=wrap;fontSize=13;fontColor=#333333;strokeColor=#5e5e5e;strokeWidth=2;rounded=1;" vertex="1" parent="NLhN2HDwFRjeJ_Ep3lSd-94">
          <mxGeometry width="8" height="48" relative="1" as="geometry" />
        </mxCell>
        <mxCell id="NLhN2HDwFRjeJ_Ep3lSd-97" value="" style="shape=partialRectangle;right=0;fillColor=none;whiteSpace=wrap;fontSize=11;strokeColor=#5e5e5e;rotation=180;strokeWidth=2;rounded=1;" vertex="1" parent="NLhN2HDwFRjeJ_Ep3lSd-94">
          <mxGeometry width="8" height="48" relative="1" as="geometry">
            <mxPoint x="124.00000000000003" as="offset" />
          </mxGeometry>
        </mxCell>
        <mxCell id="NLhN2HDwFRjeJ_Ep3lSd-96" value="" style="group;spacingLeft=8;align=left;spacing=0;strokeColor=none;whiteSpace=wrap;fontSize=11;strokeOpacity=100;fillOpacity=0;absoluteArcSize=1;arcSize=7;rotation=180;fillColor=#ffffff;strokeWidth=2;verticalAlign=middle;html=1;rounded=1;" vertex="1" zOrder="25" parent="1">
          <mxGeometry x="107" y="1271" width="79" height="48" as="geometry" />
        </mxCell>
        <UserObject label="MAP AND TRANSFER RESPECTIVE&#xa;DATA FORMAT WITH CORRESPONDING API URL&#39;S" lucidchartObjectId="Aw-MbT60HWWR" id="NLhN2HDwFRjeJ_Ep3lSd-105">
          <mxCell style="html=1;overflow=block;whiteSpace=wrap;;whiteSpace=wrap;fontSize=13;fontColor=#333333;spacing=7;strokeColor=#5e5e5e;strokeOpacity=100;absoluteArcSize=1;arcSize=7;strokeWidth=2;rounded=1;" vertex="1" zOrder="31" parent="1">
            <mxGeometry x="433" y="1333" width="252" height="142" as="geometry" />
          </mxCell>
        </UserObject>
        <UserObject label="" lucidchartObjectId="Yw-MpNe.6cj0" id="NLhN2HDwFRjeJ_Ep3lSd-106">
          <mxCell style="html=1;jettySize=18;whiteSpace=wrap;fontSize=11;strokeColor=#5E5E5E;arcSize=12;edgeStyle=orthogonalEdgeStyle;startArrow=none;;endArrow=block;endFill=1;;exitX=1.002;exitY=0.5;exitPerimeter=0;entryX=-0.004;entryY=0.5;entryPerimeter=0;" edge="1" source="NLhN2HDwFRjeJ_Ep3lSd-89" target="NLhN2HDwFRjeJ_Ep3lSd-105" parent="1">
            <mxGeometry width="100" height="100" relative="1" as="geometry">
              <Array as="points">
                <mxPoint x="308" y="1404" />
              </Array>
            </mxGeometry>
          </mxCell>
        </UserObject>
        <UserObject label="" lucidchartObjectId="VT-M5Ml1E-9u" id="NLhN2HDwFRjeJ_Ep3lSd-108">
          <mxCell style="html=1;jettySize=18;whiteSpace=wrap;fontSize=11;strokeColor=#5E5E5E;arcSize=12;edgeStyle=orthogonalEdgeStyle;startArrow=none;;endArrow=block;endFill=1;;exitX=1.004;exitY=0.5;exitPerimeter=0;entryX=-0.009;entryY=0.5;entryPerimeter=0;" edge="1" source="NLhN2HDwFRjeJ_Ep3lSd-105" target="NLhN2HDwFRjeJ_Ep3lSd-109" parent="1">
            <mxGeometry width="100" height="100" relative="1" as="geometry">
              <Array as="points" />
            </mxGeometry>
          </mxCell>
        </UserObject>
        <UserObject label="PERFORM THE ACTIONS OF THE API " lucidchartObjectId="3T-M8y_UdcLP" id="NLhN2HDwFRjeJ_Ep3lSd-109">
          <mxCell style="html=1;overflow=block;whiteSpace=wrap;;whiteSpace=wrap;fontSize=13;fontColor=#333333;spacing=7;strokeColor=#5E5E5E;absoluteArcSize=1;arcSize=7;strokeWidth=2;rounded=1;" vertex="1" zOrder="35" parent="1">
            <mxGeometry x="730" y="1360" width="96" height="78" as="geometry" />
          </mxCell>
        </UserObject>
        <mxCell id="NLhN2HDwFRjeJ_Ep3lSd-110" value="" style="edgeStyle=orthogonalEdgeStyle;orthogonalLoop=1;jettySize=auto;html=1;" edge="1" source="NLhN2HDwFRjeJ_Ep3lSd-111" target="NLhN2HDwFRjeJ_Ep3lSd-126" parent="1">
          <mxGeometry relative="1" as="geometry" />
        </mxCell>
        <UserObject label="GET RESPONE FROM THE API&#xa;URL&#39;S." lucidchartObjectId="PU-Mf2I44WwS" id="NLhN2HDwFRjeJ_Ep3lSd-111">
          <mxCell style="html=1;overflow=block;whiteSpace=wrap;;whiteSpace=wrap;fontSize=13;fontColor=#333333;spacing=7;strokeColor=#5e5e5e;strokeOpacity=100;absoluteArcSize=1;arcSize=7;strokeWidth=2;rounded=1;" vertex="1" zOrder="36" parent="1">
            <mxGeometry x="871" y="1328" width="252" height="142" as="geometry" />
          </mxCell>
        </UserObject>
        <UserObject label="" lucidchartObjectId="JV-M.SvBGPh0" id="NLhN2HDwFRjeJ_Ep3lSd-112">
          <mxCell style="html=1;jettySize=18;whiteSpace=wrap;fontSize=11;strokeColor=#5E5E5E;arcSize=12;edgeStyle=orthogonalEdgeStyle;startArrow=none;;endArrow=block;endFill=1;;" edge="1" parent="1">
            <mxGeometry width="100" height="100" relative="1" as="geometry">
              <Array as="points" />
              <mxPoint x="685.9999999999991" y="1399" as="sourcePoint" />
              <mxPoint x="729" y="1399" as="targetPoint" />
            </mxGeometry>
          </mxCell>
        </UserObject>
        <UserObject label="" lucidchartObjectId=".W-MXJprKFS." id="NLhN2HDwFRjeJ_Ep3lSd-113">
          <mxCell style="html=1;jettySize=18;whiteSpace=wrap;fontSize=11;strokeColor=#5E5E5E;arcSize=12;edgeStyle=orthogonalEdgeStyle;startArrow=none;;endArrow=block;endFill=1;;exitX=1.009;exitY=0.5;exitPerimeter=0;entryX=-0.004;entryY=0.5;entryPerimeter=0;" edge="1" source="NLhN2HDwFRjeJ_Ep3lSd-109" target="NLhN2HDwFRjeJ_Ep3lSd-111" parent="1">
            <mxGeometry width="100" height="100" relative="1" as="geometry">
              <Array as="points" />
            </mxGeometry>
          </mxCell>
        </UserObject>
        <UserObject label="RESPONSE" lucidchartObjectId="-Y-M5e90RVFS" id="NLhN2HDwFRjeJ_Ep3lSd-114">
          <mxCell style="html=1;overflow=block;whiteSpace=wrap;strokeColor=none;fillColor=none;whiteSpace=wrap;fontSize=13;fontColor=#333333;fontStyle=1;spacing=0;strokeOpacity=100;absoluteArcSize=1;arcSize=7;strokeWidth=2;rounded=1;" vertex="1" zOrder="40" parent="1">
            <mxGeometry x="925" y="1297" width="144" height="36" as="geometry" />
          </mxCell>
        </UserObject>
        <UserObject label="1. CHECK RESPONSE (STATUS) CODE FROM API RETURN&lt;br&gt;2. CHECK RESPONSE TIME&lt;br&gt;3. LATENCY&lt;br&gt;" lucidchartObjectId=".y_MP-dcg7dd" id="NLhN2HDwFRjeJ_Ep3lSd-115">
          <mxCell style="html=1;overflow=block;whiteSpace=wrap;;whiteSpace=wrap;fontSize=13;fontColor=#333333;spacing=3;strokeColor=#5e5e5e;strokeOpacity=100;fillOpacity=0;absoluteArcSize=1;arcSize=7;fillColor=#000000;strokeWidth=2;rounded=1;" vertex="1" zOrder="41" parent="1">
            <mxGeometry x="1174" y="1233" width="361" height="360" as="geometry" />
          </mxCell>
        </UserObject>
        <UserObject label="" lucidchartObjectId=".z_My.yaata0" id="NLhN2HDwFRjeJ_Ep3lSd-116">
          <mxCell style="html=1;jettySize=18;whiteSpace=wrap;fontSize=11;strokeColor=#5E5E5E;arcSize=12;edgeStyle=orthogonalEdgeStyle;startArrow=none;;endArrow=block;endFill=1;;exitX=1.004;exitY=0.5;exitPerimeter=0;entryX=-0.002;entryY=0.461;entryPerimeter=0;" edge="1" source="NLhN2HDwFRjeJ_Ep3lSd-111" target="NLhN2HDwFRjeJ_Ep3lSd-115" parent="1">
            <mxGeometry width="100" height="100" relative="1" as="geometry">
              <Array as="points" />
            </mxGeometry>
          </mxCell>
        </UserObject>
        <UserObject label="CHECKLIST / TEST" lucidchartObjectId="xD_MZKoS26Ln" id="NLhN2HDwFRjeJ_Ep3lSd-117">
          <mxCell style="html=1;overflow=block;whiteSpace=wrap;strokeColor=none;fillColor=none;whiteSpace=wrap;fontSize=14;fontColor=#333333;fontStyle=1;spacing=0;strokeOpacity=100;absoluteArcSize=1;arcSize=7;strokeWidth=2;rounded=1;" vertex="1" zOrder="43" parent="1">
            <mxGeometry x="1283" y="1255" width="144" height="36" as="geometry" />
          </mxCell>
        </UserObject>
        <UserObject label="MAIN COLELCTION" lucidchartObjectId=".9_MZ~g2BQ8r" id="NLhN2HDwFRjeJ_Ep3lSd-118">
          <mxCell style="html=1;overflow=block;whiteSpace=wrap;shape=mxgraph.aws4.resourceIcon;resIcon=mxgraph.aws4.documentdb_with_mongodb_compatibility;verticalLabelPosition=bottom;align=center;verticalAlign=top;strokeColor=#ffffff;whiteSpace=wrap;fontSize=5;fontColor=#000000;fontStyle=1;spacing=0;strokeOpacity=100;absoluteArcSize=1;arcSize=7;fillColor=#3b48cc;strokeWidth=2;rounded=1;" vertex="1" zOrder="44" parent="1">
            <mxGeometry x="262" y="1449" width="36" height="36" as="geometry" />
          </mxCell>
        </UserObject>
        <UserObject label="" lucidchartObjectId="o~_M.q~rCnKZ" id="NLhN2HDwFRjeJ_Ep3lSd-120">
          <mxCell style="html=1;overflow=block;whiteSpace=wrap;shape=image;whiteSpace=wrap;fontSize=11;spacing=3;strokeColor=none;strokeOpacity=100;strokeWidth=0;rounded=1;" vertex="1" zOrder="46" parent="1">
            <mxGeometry x="1082" y="1437" width="32" height="32" as="geometry" />
          </mxCell>
        </UserObject>
        <UserObject label="" lucidchartObjectId="v~_Ma4q5iS8m" id="NLhN2HDwFRjeJ_Ep3lSd-121">
          <mxCell style="html=1;overflow=block;whiteSpace=wrap;shape=image;whiteSpace=wrap;fontSize=11;spacing=3;strokeColor=none;strokeOpacity=100;strokeWidth=0;rounded=1;" vertex="1" zOrder="47" parent="1">
            <mxGeometry x="655" y="1438" width="22" height="29" as="geometry" />
          </mxCell>
        </UserObject>
        <UserObject label="" lucidchartObjectId="xd.Mx0mA.RFu" id="NLhN2HDwFRjeJ_Ep3lSd-122">
          <mxCell style="html=1;overflow=block;whiteSpace=wrap;shape=image;whiteSpace=wrap;fontSize=11;spacing=3;strokeColor=none;strokeOpacity=100;strokeWidth=0;rounded=1;" vertex="1" zOrder="48" parent="1">
            <mxGeometry x="1486" y="1243" width="36" height="36" as="geometry" />
          </mxCell>
        </UserObject>
        <mxCell id="NLhN2HDwFRjeJ_Ep3lSd-123" value="" style="shape=image;html=1;verticalAlign=top;verticalLabelPosition=bottom;labelBackgroundColor=#ffffff;imageAspect=0;aspect=fixed;image=https://cdn3.iconfinder.com/data/icons/document-file-formats-2/512/22-128.png;rounded=1;" vertex="1" parent="1">
          <mxGeometry x="-245" y="1369.5" width="40" height="40" as="geometry" />
        </mxCell>
        <mxCell id="NLhN2HDwFRjeJ_Ep3lSd-124" value="&lt;font style=&quot;font-size: 14px&quot;&gt;&lt;b&gt;DATABASE&lt;/b&gt;&lt;/font&gt;" style="dashed=0;outlineConnect=0;html=1;align=center;labelPosition=center;verticalLabelPosition=bottom;verticalAlign=top;shape=mxgraph.webicons.mongodb;gradientColor=#DFDEDE;rounded=1;" vertex="1" parent="1">
          <mxGeometry x="-1340" y="1340" width="185" height="146" as="geometry" />
        </mxCell>
        <mxCell id="NLhN2HDwFRjeJ_Ep3lSd-125" value="" style="html=1;shadow=0;dashed=0;align=center;verticalAlign=middle;shape=mxgraph.arrows2.twoWayArrow;dy=0.6;dx=35;rounded=1;" vertex="1" parent="1">
          <mxGeometry x="-1150" y="1396" width="130" height="60" as="geometry" />
        </mxCell>
        <mxCell id="NLhN2HDwFRjeJ_Ep3lSd-126" value="UPDATE LOG" style="whiteSpace=wrap;html=1;fontSize=13;fontColor=#333333;strokeColor=#5e5e5e;strokeWidth=2;spacing=7;arcSize=7;rounded=1;" vertex="1" parent="1">
          <mxGeometry x="937" y="1508" width="120" height="60" as="geometry" />
        </mxCell>
        <mxCell id="NLhN2HDwFRjeJ_Ep3lSd-127" value="" style="outlineConnect=0;fontColor=#232F3E;gradientColor=none;fillColor=#277116;strokeColor=none;dashed=0;verticalLabelPosition=bottom;verticalAlign=top;align=center;html=1;fontSize=12;fontStyle=0;aspect=fixed;pointerEvents=1;shape=mxgraph.aws4.iot_over_the_air_update;rounded=1;" vertex="1" parent="1">
          <mxGeometry x="1030" y="1547" width="22" height="22" as="geometry" />
        </mxCell>
        <mxCell id="NLhN2HDwFRjeJ_Ep3lSd-128" value="&lt;font style=&quot;font-size: 12px&quot;&gt;API_URL&lt;br&gt;TIMEOUT_SEC&lt;br&gt;CONTENT_TYPE&lt;br&gt;SAMPLE_DATA&lt;br&gt;CHECKLIST FUNC. NAME&lt;/font&gt;" style="shape=parallelogram;html=1;strokeWidth=2;perimeter=parallelogramPerimeter;whiteSpace=wrap;arcSize=12;size=0.23;rounded=1;" vertex="1" parent="1">
          <mxGeometry x="-1051" y="1641" width="250" height="130" as="geometry" />
        </mxCell>
        <mxCell id="NLhN2HDwFRjeJ_Ep3lSd-130" value="" style="edgeStyle=orthogonalEdgeStyle;orthogonalLoop=1;jettySize=auto;html=1;" edge="1" target="NLhN2HDwFRjeJ_Ep3lSd-131" parent="1">
          <mxGeometry relative="1" as="geometry">
            <mxPoint x="559" y="1471" as="sourcePoint" />
          </mxGeometry>
        </mxCell>
        <mxCell id="NLhN2HDwFRjeJ_Ep3lSd-131" value="CREATE LOG" style="whiteSpace=wrap;html=1;fontSize=13;fontColor=#333333;strokeColor=#5e5e5e;strokeWidth=2;spacing=7;arcSize=7;rounded=1;" vertex="1" parent="1">
          <mxGeometry x="499" y="1509" width="120" height="60" as="geometry" />
        </mxCell>
        <UserObject label="" lucidchartObjectId="xuZM8lFK8NhB" id="NLhN2HDwFRjeJ_Ep3lSd-139">
          <mxCell style="html=1;overflow=block;whiteSpace=wrap;;whiteSpace=wrap;fontSize=11;spacing=3;strokeColor=#5e5e5e;strokeOpacity=100;fillOpacity=0;absoluteArcSize=1;arcSize=7;fillColor=#000000;strokeWidth=2;rounded=1;" vertex="1" zOrder="4" parent="1">
            <mxGeometry x="-1011" y="1235" width="361" height="360" as="geometry" />
          </mxCell>
        </UserObject>
        <mxCell id="NLhN2HDwFRjeJ_Ep3lSd-141" value="" style="shape=image;verticalLabelPosition=bottom;labelBackgroundColor=#ffffff;verticalAlign=top;aspect=fixed;imageAspect=0;image=data:image/png,iVBORw0KGgoAAAANSUhEUgAAASwAAAEsCAMAAABOo35HAAAAGXRFWHRTb2Z0d2FyZQBBZG9iZSBJbWFnZVJlYWR5ccllPAAAAG9QTFRFAAAAjMY/jMY/jMY/jMY/jMY/jMY/jMY/jMY/jMY/jMY/r9d5jMY/jMY/z+ev9frvjMY/////jMY/jMY/jMY/k8pLms1XotFjqdRvsNh7t9uHvt+TxuOfzear1Oq32+3D4vHP6fTb8fjn+Pvz////JyPEzwAAABR0Uk5TABAgMEBQYHCAj5+fr7+/v8/P3+9fliVTAAAPq0lEQVR42u2d23qjsK6AHZIGygprsYM4G2IO7/+M+yKdNgcMlrGNTavL+WbSyV9JlmRJJsQC8U4fQRBGUZTAiyRRFIVB8HHyyK+X4ykIoysIyTUKg9Pxd3I6+WEMEhKH/ulX6dNZjtMjsfNv0LGjf0lAiSQXf8/ADufwCkrlGp4PeyTl+RFokcj39kYqBo0S74eXZlJ74nW+gCG5nB1Xqs8EDEry6a56nSMwLpGT6nUIrrCJXAPXogkvTGAzSULPKVSwsTiDa3tUzuCyA5UTuOxBZT2uQwCWib0no5+AdZL4dpY+Y7BSYvsKq4cLWCuXw58FOmqLxxgsl9iaCnQADkjwp1aOKVcAzsjWyuVF4JBEm0b0Hwk4JcnHdrFVCM5JePjz7Lb7eddMcEtT/ARn5fMvFbQ2WXTTXW3juI4JOC6JMVpn2IEYuowNYBdiJPkJYScS/rGyiNYhhh1JdPhjhQghDn+sbKC1P1b6aOljlRa0YYwxdqNVvgtaulhltBsfZbhVqeu0NLGq2PguQ5u5TUsLq7IfOWISV+xCLJqxkS8DdTY61cGqHMZZYambtHTkzs24JIO5k1FhVq2jJtOOyzKU7lVsjhuxGsfRHC1F1UAddVFBVgYtUU3tVEeAVY2iMhjz8krCLQ33OPkgDGtkxgzxYuf9YDcipHbnSPzQ8J+qMawMGiJ82Ofc0wEFa2zBDSevJXumI1LMpYmrnLyW24keC8uNLFGHw0KEDd9ey2C9RtpteVpu6W9oWAbjeEhkOyn19IviWRl08QCRTdf0hQSs3mSZOVCVPhc1ZYwxxmhdmDoLx3EcjRblZeKH16ghq18Km6zOzLiscSxMwopXG2Ex+SVv2G+R170MLApWG+KzEebcajkrEKBuwygnZmGhDfHRCNPZCnCT6gU1juPYmIWFNET/8YsuWE6fawVltk5zF9R84uEhHK2Wv2mlE9QWsJKDXMGvkvYpWdWqAGU6KsUWAk/oTK55B9WP6oSahgUnCe8unPVW2kBtAyvGe3dEsbzQBcp4UIry8T/ePUV88SHVBMps+Q/r439i92a0Q3rYQITieO/HCC1hZf4wBAAAD1VKZrbAqjaBFWIUq7CF1ZCCpaoVrium7McKBVTrR7EyW1htcRaKqVYoeW+8Q8VaVK0fxbLHvW+mWEuqFa66hRELmtoKFbvS7VjNq5YHes/Cvq0y5Gd3sKV4YopFlQcAd1DIDx/yTWGFYjU/panOcKufv7Rom6TJy2hkhvh4o8O0gQIASAX72SrYWPgZ4lU1rElQCFqbs4KrULs70wfqTmvZEoftWfEb5CNlsBZAiXn5PreAFa9RxAMlsIRACRwhTQpWiCfQlywHSxQUwEIHICvAEpneiZTIHe6y93uZE6gAEoFpJqmgFJOacBP1rsnAJjkvT1JIpTuY42sidugZo6VdpKYvXL3Xo11zgSC15F5CysX7Ar95lbcw1ea9MiuuEGNhn6KmM2iiaJ1bCiteskKpsjLm2w6btruvs0P//a+gIy1M6am0qXyMtcNY6PuoOwtb66ox4nboCR7uyhqw+437t9fYoT/1V7ChVif+dSc6A272snqxw0j0xFJEayI/qC2G9VR6OHACx0EXrc6qG69lOQhsuUDnPIK0MttucTD5YYiIs1XQquy6HlyWkFN8XzziFdByKHx/K8UfcQHRaloOJdH/5DgfOEjniMu0nArfX4OH+aUgpfIz0anw/bWotTALnaqOt1xKol+Ly8srn8peZUrtWPj+7LREdolVk4niINWA1th49SwaaU1GWXlRFE93LHnzol59k/PPynY3SfRLpPVaniko+1aZ7qFRCLKKMtbfLxa+/liClnPh+1OZ5pnU+9xbN7eSFk+rdiuJ/idvA3Mc1zQONMXkxPO0mGvh+11Or0Ng/Eoyf8dqiqTlYPj+EJaGM6fUozHmamg5dAc24eG//Hu2WEWulNBqrRgnlPXwXyYokNS0Kmg5GL7/ePijMCsltBxMoh9i+JM4KxW0nAzfv4/DADDF9hpN69F7p0XhZPgOAPfG5RBQN4QFmtZdcdKy4QQmNzdYQXi/BcM0rnEnJWdpVTe8stomESHkipyFbiWi08HSqS+UXAkh6A6QAk/L3kkmXOzgoS8H+V22mczuGZNLeYqippQWhdyR4pETvrWIH3DnMrTe86iCvslLce3fb4fOyIt55003jgNjjHXj2Lfl4o98/vkAcCIf+O0NM0GkFK231xfowN5lHLvmFWsxMr48/eWCjbefpY5Z1Q7900+tnv9t9/rBFQB8kEBiVi5VTOs1LKWTppmV7ciyF1hiBpS2bw/5pHRo+d9j8oMDEvSrv5tyWpTnx7LbUEjASrthwojzjn8LxYH1H4mvNpvMKaBF+U6/fRptFYTVTs/Dpt0NBSsk/5UZdQb1tHIxWMA6NKySdyTl3LvdyQ+OyP+k9GD28JXz8qkYrOzxC4rB6riWQHscrP+THZXrGKVFro4WE4MFbYuElfFL/CnvGSQOrLUDqz1rafmqaFK0KjFY1YCEVY5i5BdhJathfSvGjdZFtobWjyHOwsofIhchWHOfVvUIWKAM1reiNbQs5Lb+UCFY8OCuV8PifYAZWKsmq1PjsIBzUNoP61u11MKq5i5EaOYqrF7MZ+U4WLlExcwBWP9CqPnTcMTGWX2rClZvE6xWANaNKYvg0bCYhXY4H8FXqnJDPCxqlR1mOnJDgHaolcAqrIJVaak6ANChR717zoEFg33BAxdW2j4nc8KwIKXD47YzWVitTbDYLKyyf6nXF+Ns0fzlX7f92Avuf+HBKt2AlZVN31fiNfjJam5WNZ3QZiEeLOitOw6nD51bLpzazRpkSdnYt/MujAurskm1vmpy72bVsH5klQJY96i+7sY2l4CFVa22Yb1mWNM+K6NDX6iBBQBZM3O9w4GVYHcS3L9IXtSUMbOwANJ2LFXBAsgYN1jlFP8iQA6OP31+WpS0Zeqij245zkqVwQJohwxVVo4ANzg+HQrnBaWs0x06AED61GO+Fha0DA0L0Rsy33mWFhW9rVG022K60/QqYaVDgYEVftU9BM1EKGfQFsEDQPFYnRKB1cy2rDYN5pI1AAQtwU0E8vZY4grBIrDY7Fx/wVC9DiBOS3THhXwGlS7DGpAlGjY7v5GOGFjfb0Uvj0K3onl7te4wnIf1qCkisOYL+oCA9fEwE7Ywj4IoCaWysBoNsOpBFazT0zIoOqNcDFP1l41Wcw2w8tkBvXQQh+U9j2ZmPG+D27LarLNCtbCgn3NaJcLBv61WyehE3od81Ffav1daYNG5R47aWhjWdWp1Vv40CrFUzHhXbOnAoQctsFL+YClko/gla8Sfva8ppe/tMQLZqXyQVYnBuim8CuuoeLoTKn/iPpfPdTqx056i7w35V2Fth6g6BC/z5KulWJEXFoKwOpmrsKmcJ2XcKHvqg09Cy1XEZU3RtRGMI8sRDwvq9/N8trd76oOPb2sdVsmaC9tONOh+9MmzQwPVS1DU/QwNQFq2w1w4NAWLt89VsjikojcLAKCYLRQ83M1kSxMkj7hqNo79neMwMa3xEkG9/VE8v/APWRpaU2Q29HCT/CH/b1WBr4ZVZz+rVeK/rVfBH3/3X1Wer7rwcWGk/DSxuAd1+Kl6iZQ5AIu/sVsoMFZ4e2j/zpB4aaXrrI8S06q+aPahWiFijd3buSKmVl0KULA9qNZZeEGibArI7kd0cXNftY6Cqzenqh6YfloAyOrObdVKBJe6SpeNn6PgtJy9s7ZctS5i64Kl8+UKp5h2q5ZPiKTTEnHuQ4HMuJkbLmtuxbmsYs0nMM6p1lVkef6kCERYXYYv5tisWqHAswzTaqHgnt811TovP/jBK4yJhwx7Ua3D8lMykvVQkSEst1QrWn6kSBZWIfsp1qqWv/z8lVZYTqmWt/iwml5YLqlWvPxkn2ZYDqmWT4isHS4+l7ICOnPBCjF2uBQ6iO7gdka14uUHbPkyrI8cnFItnxB5O2xFOo53pFre4qPb0naI2IQ/pVo968dxZKytbcF2WX7OXbr2h7gDXCi4Djcr7hOnnnNHFJcLNYolEIXMPZ5hSJIpVuRT/AMawaGxlaplBa7PSViYlKdTdBEv0qTUb+u8vElYmNIDrw0Eu/VF7Jpoy1c1o2lWqBLgdIMR3iGL9b+x7UzxzIGFK8VTJfYieAPZbUXrymOFbFx+GccY5IxFsF1wK1oBF9YBeTWd1WxtSCS8BnubPCg5cGHJ9NPkRVEU0o8FIKazN3n2KeSzQkUPSgTTh7rFs63eDCxVzbjKSmPchubtFcu0aqW4eYzGLsUyrFrYxvnMKsUyq1roNbmtXYplVLXw0yupVYplVLXw3c61XYplULUkVsJ1dimWQdWSGTvP7FIs1aOtEjUxO+ZWAhFW6AxRVlZOcG6YFcq21MiL1DZZc+m0TwQlNvG/kRoRNvbWbSzKSu2MubooC9FHsVpOwrDwUwR7g3URZ2XEx8vByqzy7sZ8vM2a5ROUxL8ZVoRjpXQ1hnOwjkhY+uP40trQISBo0W2I1galMZ6VfkO0Nd05SsDSbogyiXRppRFiZ1QMlWj0l0ojOVbE0xua5jYW/xJPEtbPwldbysr6y1kfRFr0lphrdOCg3QpDeVbkoDV+SLE777Q3tcWHFbDIUavbopYpVnIkq+TDItWiFjssdA+z5pSn180qIKtFayEQs4BL9/a2y3pWep08YvldbbVzN+LkhTfmtpY7dyMpdT5YwQoUsZLbRqaWlnZWZ6JMtBYgBJa8aWcVEIWiNe9ZWgc7aE8JQ0KcoQX1nCmyzDFWuqvMKbe9tNdfaYhUs9KcUwNk7ZR2dQZ6jNQEWGZpAVS3Z14Lm7UtZmWCFkBe0RtjjLGGFma6bfWwMkPLtOhitUda+ljtj5ZOVoQcoj2xirSyMj835lQsumNaBliZ65N3KXfeqGJjSs7EkBwT11ElR2JMjo6HELFBVoQcLi6zuhyIWfn8c+2Yu2pHHVfyQTYQNx2XWXf14LgcjE/DA9lKXDPFbUzwu5PSqcQ68si24lDyE5DNxRU/v5Vnd1G5AmKJ2K9clqjV13yi1cdi4hOrxOZk8XIgtsnJUluMT8RGsdEWbbPAB1u07lwMDsRe8axKF0OP2C324LIelT24nEBlBy5nUN1xbXgyJk6hup+M121QXa0+AfmXsRsUu6IzcVW8T6PWmHx6xGk5G0saL2fivni+gawx9j2yE9HMa0ek/vHS5O6jvZH6iibOoeJw4hqeD2S/cvQvig7I5OIfyf7leA5XurA4PP8GUD+FVV+OWBz6J/Ir5XgKwkjQj12jMDgdya8X7/QRBGEURW/uLImiKAyCj5MVJ97/A47ypQ8Uu8qxAAAAAElFTkSuQmCC;" vertex="1" parent="1">
          <mxGeometry x="-1656" y="66" width="161" height="161" as="geometry" />
        </mxCell>
      </root>
    </mxGraphModel>
  </diagram>
</mxfile>
